PathFileType	4	(X/Y/Z)	C:\Users\°ÂÌØÂü\Desktop\20210112\bx_n_10_502-Unnamed.trc
DataRate	CameraRate	NumFrames	NumMarkers	Units	OrigDataRate	OrigDataStartFrame	OrigNumFrames
50.00	50.00	       7	0	mm	50.00	296	       473
Frame#	Time	
		

296	5.900	-500.27380	267.60242	1423.82495	-706.34259	214.98401	819.94934	-815.63971	283.11639	870.97845				-548.15509	93.38931	1217.90930	-802.91882	274.98593	738.45129	-814.27478	254.10965	634.60114	-501.58273	-73.93233	1420.23962	-704.94885	-11.05245	809.71393	-804.18109	249.95129	569.75116	-729.41840	11.65778	526.79376	-830.20697	262.47794	491.08432	-743.61993	207.95378	537.95386	-728.22784	239.61183	1049.54028	-718.47260	157.48390	221.27428	-772.08698	230.42598	202.34271	-882.52698	296.03412	144.76205	-673.05566	50.58333	162.89906	-675.89008	175.00287	162.03972	-593.34021	220.16501	174.47298	-661.05927	299.02112	156.32497	-624.30988	307.75607	158.07611	-557.86200	256.24203	164.04126	-527.96411	303.91742	146.31837	-296.72971	93.17938	1644.91394	-767.15222	69.62073	572.05066	-517.76318	-72.73523	142.84953	-550.47888	-28.46292	163.34299	-797.79315	181.33505	181.53880	-766.58984	146.09528	574.48273	-793.49579	36.58448	172.55728	-723.37061	65.02507	219.85933	-816.63049	-50.56702	479.08044	-598.81122	24.36255	168.33232	-763.30273	-22.84423	203.92349	-875.97479	-78.83452	141.03528	-791.66412	-74.96732	871.06512	-795.76355	-64.11685	754.23401	-607.44293	-77.61866	155.94896	-649.86353	-70.73525	159.52216	-720.50348	-7.57297	1030.51318							-789.36444	-39.70151	613.72821	-788.84851	-36.96644	565.27106	
297	5.920	-495.67670	268.01270	1417.19373				-818.09052	283.37296	870.78046	-708.91504	214.17561	819.99451	-548.18610	93.66134	1212.38074	-804.77344	274.86615	738.10803	-815.99719	253.95682	634.29071	-496.24930	-73.48980	1413.22998	-706.96423	-10.84085	809.85370	-805.84119	250.05885	569.65479	-731.04993	12.81001	525.98926	-831.15521	262.94763	490.88782	-745.16968	207.77470	538.09332	-729.64307	239.05663	1048.66687	-718.45685	157.34549	221.27687	-772.01636	230.51620	202.31628	-882.72400	296.17868	144.67067	-672.87018	50.53392	162.57458	-676.07196	175.21371	161.91330	-593.30359	220.05109	174.14854	-660.87091	298.88193	156.46306	-624.30988	307.75607	158.07611	-557.85333	256.29465	164.07387	-527.94812	303.98865	146.28252	-290.67377	93.73607	1636.47070	-768.44153	70.16545	571.75354	-517.89307	-73.08669	142.93735	-550.40521	-28.46614	163.12558	-797.95056	181.69835	181.43967	-768.54425	146.31555	574.32861	-793.77118	36.81896	172.72913	-723.51599	65.12656	219.75398	-817.64587	-50.33426	478.71518	-598.49854	24.51801	168.41830	-763.30273	-22.84423	203.92349	-875.78961	-78.57214	141.09050	-794.38068	-74.14243	870.12531	-797.65265	-64.30692	753.54639	-607.33673	-77.57108	156.05937	-649.76495	-70.65902	159.64296	-723.55389	-7.52087	1029.27686	-916.02716	91.39950	1080.38159				-790.73889	-39.61845	613.14850	-790.08423	-36.62366	564.65814	
298	5.940	-491.56598	267.95209	1410.08728				-820.55530	283.22400	870.41663	-711.22778	213.87762	819.74304	-547.56812	93.81550	1206.65210	-806.70728	275.34265	737.96619	-817.68164	254.03273	633.70563	-491.26886	-72.87737	1406.65198	-709.50317	-10.75978	810.11633	-807.04755	249.83267	568.91650	-732.04224	12.82514	526.45917	-832.36578	262.70837	490.46741	-746.48370	207.81894	537.77533	-731.68213	238.80612	1047.91138	-718.85596	157.58449	221.34103	-772.14020	230.65326	202.13725	-882.63379	295.99463	144.58681	-673.08234	50.60762	162.65869	-675.89008	175.00287	162.03972	-593.75989	220.00896	174.15514	-660.93921	298.92950	156.54572	-624.03088	307.82297	157.94012	-558.17487	256.28226	164.15681	-528.00018	304.02240	146.20293	-284.79367	94.19589	1627.98535	-769.63416	69.90116	571.69824	-517.83124	-72.90398	142.84503	-550.25378	-28.46002	163.07872	-797.99261	181.74992	181.52364	-770.18890	145.85786	574.42188	-793.70782	36.98321	172.75504	-723.84467	64.84656	219.70593	-818.35266	-50.40726	478.34979	-598.62653	24.56151	168.26456	-763.29352	-22.93724	203.83397	-875.84143	-78.79816	141.14836	-797.22491	-73.62114	869.67621	-799.45917	-64.35326	753.62793	-607.23956	-77.78682	156.19835	-649.70361	-70.81611	159.88371	-725.77277	-7.84659	1028.51196	-917.82056	91.37690	1081.06824				-792.45453	-39.72124	613.01434	-791.41418	-36.56206	564.64282	
299	5.960	-487.41547	268.11163	1403.05200				-823.02844	283.74948	870.40881	-713.53741	213.70831	819.60205	-546.83539	93.97884	1201.48340	-808.81934	275.33429	737.33191	-819.46600	254.42552	633.46417	-486.19867	-72.72614	1399.88562	-711.72540	-10.53529	810.03717	-808.63562	250.43932	568.89587	-733.10205	12.63484	526.15131	-833.58929	262.81491	490.13770	-747.42908	208.49646	538.21222	-733.86871	238.98161	1046.88855	-718.86487	157.66379	221.51547	-772.31171	230.68008	201.76314	-882.56390	296.03781	144.49754	-673.02637	50.74007	162.58511	-676.17078	175.31126	161.83278	-593.95471	220.17508	173.98274	-660.87091	298.88193	156.46306	-624.12695	307.63385	158.01416	-558.17487	256.28226	164.15681	-527.94812	303.98865	146.28252	-279.10202	94.68214	1619.69922	-771.47986	69.88211	571.22626	-517.85107	-72.82214	142.75256	-550.16290	-28.33546	163.25677	-798.09332	181.72615	181.41838	-771.57996	146.47922	574.06146	-793.75769	36.76351	172.67960	-724.04102	64.52851	219.71849	-819.64551	-50.57163	478.19354	-598.54456	24.39365	168.26372	-763.18213	-22.92995	203.63051	-875.80023	-78.62018	141.04199	-799.67444	-73.69775	869.47070	-801.31409	-64.41670	753.49591	-607.37952	-77.61738	156.05020	-649.44904	-70.58528	159.71709	-728.14581	-7.45935	1027.44470							-793.74371	-39.62702	613.07928	-792.61786	-36.41979	564.12042	
300	5.980	-482.52826	268.53473	1395.94971				-825.46118	283.98810	869.70160	-716.37646	213.75862	819.08484	-546.31586	94.14973	1194.79626	-810.89276	275.41504	736.68573	-821.43628	254.20668	632.94019	-481.48956	-72.39169	1393.53760	-714.03540	-10.35769	809.65674	-810.08423	250.46979	568.62756	-734.38739	12.48827	526.59290	-834.34650	262.98279	489.53146	-749.21014	208.58131	537.91766	-736.14325	239.25096	1045.87622	-719.19934	157.84613	221.67448	-772.34216	230.56282	201.86592	-882.64471	296.07767	144.69392	-673.05566	50.58333	162.89906	-676.07196	175.21371	161.91330	-594.09637	220.25694	173.92406	-660.87091	298.88193	156.46306	-624.03058	307.70154	157.96687	-558.23230	256.30109	164.10165	-527.91858	304.08527	146.46634	-274.08972	94.90633	1611.24146				-517.85602	-72.97543	142.95665	-550.10669	-28.46675	163.42097	-798.18585	181.81615	181.29623	-773.53583	146.28516	574.15240	-793.83228	36.86050	172.75798	-724.50824	64.71909	219.58858	-820.81494	-50.88251	477.79761	-598.54626	24.43397	168.21475	-763.18213	-22.92995	203.63051	-875.87213	-78.71808	140.99890	-802.08295	-73.92097	869.49438	-803.26758	-64.47913	753.08179	-607.47253	-77.51096	156.01215	-649.37061	-70.51256	159.67229	-730.56140	-7.53300	1026.14551							-795.47375	-39.44433	612.47137	-794.42041	-36.59784	563.68323	
301	6.000	-478.30469	268.36758	1387.94031				-828.04004	284.40256	869.42664	-718.81079	213.59238	819.43738	-545.42310	94.02808	1189.30115	-812.91809	276.25284	736.73077	-822.63446	254.81348	632.88116	-476.88260	-71.39561	1386.68689	-716.58685	-10.17923	809.28424	-811.85565	250.14690	568.12946	-735.87714	12.69995	526.38562	-836.21655	263.08405	489.25848	-750.74323	208.44713	537.65344	-738.53949	239.17384	1044.76184	-719.21710	157.66371	221.68892	-772.18286	230.70647	201.70633	-882.45129	296.15659	144.70638	-672.93854	50.51559	162.75249	-675.89008	175.00287	162.03972	-594.06909	220.03485	174.15204	-660.84167	298.91986	156.32927	-624.08588	307.79303	157.88425	-558.17487	256.28226	164.15681	-528.10028	304.01779	146.08412	-268.89526	95.42187	1602.69043				-517.94824	-72.96360	142.80283	-550.21344	-28.46461	163.01993	-798.13165	181.72794	181.21243	-774.35504	146.51756	573.78748	-793.65149	36.76339	172.77933	-724.50824	64.71909	219.58858	-821.61127	-50.65544	477.42380	-598.67511	24.50208	168.18179	-763.15991	-23.09617	203.58017	-876.00659	-79.03666	141.37961	-804.57831	-74.30318	869.20935	-805.57861	-64.74517	752.98163	-607.45642	-77.45142	156.07455	-649.52112	-70.59534	159.71034	-733.24200	-7.16719	1025.00415							-797.25220	-39.14331	612.09131	-795.89386	-36.93770	564.04138	
302	6.020	-474.42615	268.40131	1379.93958				-830.08514	284.33554	868.72357				-545.26343	94.18488	1183.16199	-814.94366	276.87927	736.03900	-824.58069	254.95291	632.22131	-472.12549	-70.61744	1379.60156	-719.11938	-10.14723	809.68439	-813.05310	250.34154	567.46094	-737.17175	12.61650	526.44391	-837.06372	263.34918	488.99091	-752.36353	208.89423	537.57825	-740.61908	239.43521	1043.71765	-719.09198	157.97346	221.81183	-772.29706	230.71712	201.58060	-882.64856	296.05118	144.61806	-673.07733	50.69875	162.76183	-676.17078	175.31126	161.83278	-594.10486	220.04614	174.06081	-660.66693	298.81900	156.38928	-624.08728	307.79623	157.87292	-557.75769	256.13098	164.24974	-527.96387	304.01797	146.26151	-264.06155	95.94186	1594.06873				-517.94147	-72.98983	142.83188	-550.16211	-28.31273	163.33487	-798.19794	181.80197	181.21442	-776.62097	146.73830	573.35547	-793.72003	36.51435	172.74315	-724.50824	64.71909	219.58858	-822.90039	-50.79816	477.36703	-598.61243	24.57426	168.22693	-762.99591	-23.15656	203.27104	-875.84924	-78.72738	141.00021	-807.18353	-74.33202	869.09564	-807.90424	-64.71374	752.47211	-607.22772	-77.58378	156.10315	-649.53497	-70.59998	159.93835	-735.83472	-6.99560	1023.21722							-799.07220	-39.23291	612.15717	-797.41290	-36.49469	563.49207	
